# xmcd
#
# Track frame offsets: 
#        150
#        17316
#        32718
#        48599
#        65661
#        89721
#        107986
#        125190
#        141218
#        157198
#        177677
#        195472
#        214302
#        230950
#        248999
#        263552
#        281299
#        295929
#        313539
#        329045
#        344425
#
# Disc length: 4783 seconds
#
# Revision: 0
# Processed by: cddbd v1.5.1PL0 Copyright (c) Steve Scherf et al.
# Submitted via: ExactAudioCopy v0.95a5
#
DISCID=5812ad15
DTITLE=╥ясЯгЕ - ╧ЗсОюо╦Х
DYEAR=2001
DGENRE=Acid Jazz
TTITLE0=кмдЦр╩╟ядЮма
TTITLE1=пдиохк
TTITLE2=дофамМжс
TTITLE3=цнмуаЕ
TTITLE4=Ё╬т╣
TTITLE5=а╪р╧╡╩дэаТ
TTITLE6=лЛиохк╪Д
TTITLE7=пгпдоЮс║
TTITLE8=╡щт╜ж╝р╧
TTITLE9=Ё╓╫╜к╝
TTITLE10=гО╣д╩ЁдН
TTITLE11=йгцнйгуФ
TTITLE12=тзрЬи╚╣дтб╧Боб
TTITLE13=сж╪Ш╪ндЙ╩╙
TTITLE14=цнпгоЮ╪Ш
TTITLE15=р╩иЗ╣деСся
TTITLE16=вМтздЦ╩ЁюО
TTITLE17=р╧©у
TTITLE18=╨ч╡╩жсгИтз╣╠дЙ
TTITLE19=╟╝пд
TTITLE20=ЁЧаТоЦп'╚
EXTD=
EXTT0=
EXTT1=
EXTT2=
EXTT3=
EXTT4=
EXTT5=
EXTT6=
EXTT7=
EXTT8=
EXTT9=
EXTT10=
EXTT11=
EXTT12=
EXTT13=
EXTT14=
EXTT15=
EXTT16=
EXTT17=
EXTT18=
EXTT19=
EXTT20=
PLAYORDER=
